<svg width="231" height="239" viewBox="0 0 231 239" fill="none" xmlns="http://www.w3.org/2000/svg">
<circle cx="115.5" cy="115.5" r="84.7385" stroke="#F5F5F5" stroke-width="1.52303"/>
<circle cx="115.333" cy="115.692" r="114.227" stroke="#F5F5F5" stroke-width="1.52303"/>
<circle cx="115.333" cy="115.692" r="54.8291" stroke="#F5F5F5" stroke-width="1.52303"/>
<path d="M117.519 138.093C117.021 139.402 115.169 139.402 114.672 138.093L108.269 121.253C108.211 121.101 108.129 120.958 108.026 120.832L96.643 106.867C95.7582 105.781 96.6841 104.178 98.0666 104.401L115.852 107.276C116.013 107.302 116.177 107.302 116.338 107.276L134.124 104.401C135.506 104.178 136.432 105.781 135.547 106.867L124.165 120.832C124.062 120.958 123.98 121.101 123.922 121.253L117.519 138.093Z" fill="white"/>
<path d="M93.2493 126.607C93.2493 123.803 95.5222 121.531 98.3261 121.531C101.13 121.531 103.403 123.803 103.403 126.607C103.403 129.411 101.13 131.684 98.3261 131.684C95.5222 131.684 93.2493 129.411 93.2493 126.607Z" fill="white"/>
<path d="M128.787 126.607C128.787 123.803 131.06 121.531 133.864 121.531C136.667 121.531 138.94 123.803 138.94 126.607C138.94 129.411 136.667 131.684 133.864 131.684C131.06 131.684 128.787 129.411 128.787 126.607Z" fill="white"/>
<path d="M111.018 96.1469C111.018 93.343 113.291 91.0701 116.095 91.0701C118.899 91.0701 121.172 93.343 121.172 96.1469C121.172 98.9507 118.899 101.224 116.095 101.224C113.291 101.224 111.018 98.9507 111.018 96.1469Z" fill="white"/>
<path d="M135.547 126.041C136.432 127.127 135.506 128.731 134.124 128.507L116.338 125.632C116.177 125.606 116.013 125.606 115.852 125.632L98.0665 128.507C96.684 128.731 95.7581 127.127 96.6429 126.041L108.026 112.076C108.129 111.95 108.211 111.808 108.269 111.655L114.671 94.8149C115.169 93.5059 117.021 93.5059 117.519 94.8149L123.921 111.655C123.979 111.808 124.061 111.95 124.165 112.076L135.547 126.041Z" fill="white" fill-opacity="0.4"/>
<g clip-path="url(#clip0_84_12472)">
<rect x="76" y="76" width="79.271" height="79.6129" rx="39.6355" fill="#4F46E5"/>
<path d="M103.635 70.0604C101.036 64.8137 94.6096 64.2307 91.7215 64.595L77.6421 94.1079L149.122 140.017C161.397 127.264 184.862 102.634 180.53 106.132C175.115 110.504 142.624 105.039 138.292 98.4801C133.96 91.9217 122.046 86.4564 112.299 86.4564C102.552 86.4564 106.884 76.6188 103.635 70.0604Z" fill="#6366F1"/>
<path d="M93.7848 86.4764C91.1855 81.2297 84.7595 80.6467 81.8714 81.0111L67.792 110.524L139.272 156.433C151.546 143.68 175.012 119.05 170.68 122.548C165.265 126.92 132.774 121.455 128.442 114.896C124.11 108.338 112.196 102.872 102.449 102.872C92.7017 102.872 97.0338 93.0348 93.7848 86.4764Z" fill="#818CF8"/>
<path d="M92.1427 101.25C89.5434 96.0034 83.1174 95.4204 80.2293 95.7847L66.1499 125.298L137.63 171.206C149.904 158.454 173.37 133.823 169.038 137.321C163.623 141.694 131.132 136.228 126.8 129.67C122.468 123.111 110.554 117.646 100.807 117.646C91.0596 117.646 95.3918 107.808 92.1427 101.25Z" fill="#A5B4FC"/>
<path d="M83.9099 116.338C81.8057 112.346 76.6038 111.903 74.2658 112.18L62.8682 134.635L120.733 169.566C130.669 159.863 149.665 141.122 146.158 143.784C141.775 147.11 115.473 142.952 111.966 137.962C108.459 132.972 98.8145 128.813 90.9238 128.813C83.0332 128.813 86.5401 121.328 83.9099 116.338Z" fill="#C7D2FE"/>
<g filter="url(#filter0_d_84_12472)">
<path d="M120.839 130.382C120.97 133.47 120.953 135.06 120.231 136.311C118.804 138.782 116.277 138.921 113.805 137.493C112.715 136.864 112.013 136.456 110.769 134.505C110.769 134.505 110.226 132.786 107.467 131.338C104.808 129.659 103.04 130.06 103.04 130.06C100.728 129.958 100.056 129.557 98.9672 128.928C96.495 127.501 95.3493 125.244 96.7766 122.772C97.499 121.521 98.869 120.714 101.608 119.282C101.608 119.282 106.919 116.344 110.491 115.583C113.071 115.034 115.543 116.469 115.543 116.469L116.307 116.91C116.307 116.91 118.894 118.394 119.602 120.843C120.612 124.352 120.839 130.383 120.839 130.382ZM111.623 110.191C114.208 111.683 118.188 109.628 120.513 105.601C122.838 101.573 122.628 97.0985 120.044 95.6062C117.459 94.1139 113.479 96.1695 111.153 100.197C108.828 104.224 109.038 108.699 111.623 110.191ZM103.06 114.664C105.473 114.885 107.708 112.017 108.052 108.259C108.395 104.5 106.718 101.274 104.306 101.053C101.893 100.832 99.6586 103.701 99.3145 107.459C98.971 111.217 100.648 114.443 103.06 114.664ZM122.503 116.473C125.088 117.965 129.069 115.91 131.394 111.883C133.719 107.855 133.509 103.38 130.924 101.888C128.339 100.396 124.359 102.451 122.034 106.479C119.709 110.506 119.919 114.981 122.503 116.473ZM134.077 118.241C132.679 116.261 129.047 116.422 125.964 118.599C122.88 120.777 121.514 124.146 122.912 126.126C124.31 128.105 127.942 127.944 131.025 125.767C134.108 123.59 135.475 120.22 134.077 118.241Z" fill="white"/>
</g>
</g>
<g clip-path="url(#clip1_84_12472)">
<path d="M209.986 42.5461H218.248C219.028 42.5461 219.661 43.1917 219.661 43.9879V51.6643C219.661 54.5906 217.335 56.9629 214.467 56.9629H214.442C211.574 56.9633 209.248 54.5915 209.248 51.6651V43.2998C209.248 43.2008 209.267 43.1028 209.304 43.0113C209.341 42.9199 209.395 42.8368 209.464 42.7668C209.532 42.6968 209.614 42.6413 209.703 42.6034C209.793 42.5656 209.889 42.5461 209.986 42.5461Z" fill="#5059C9"/>
<path d="M215.57 41.0285C217.418 41.0285 218.917 39.4998 218.917 37.614C218.917 35.7282 217.418 34.1995 215.57 34.1995C213.721 34.1995 212.223 35.7282 212.223 37.614C212.223 39.4998 213.721 41.0285 215.57 41.0285Z" fill="#5059C9"/>
<path d="M205.157 41.0284C207.827 41.0284 209.991 38.8203 209.991 36.0964C209.991 33.3725 207.827 31.1643 205.157 31.1643C202.486 31.1643 200.322 33.3725 200.322 36.0964C200.322 38.8203 202.486 41.0284 205.157 41.0284Z" fill="#7B83EB"/>
<path d="M211.603 42.5461H197.966C197.195 42.5656 196.585 43.2186 196.603 44.0053V52.7608C196.495 57.482 200.157 61.4 204.785 61.5156C209.413 61.4 213.074 57.482 212.967 52.7608V44.0053C212.985 43.2186 212.374 42.5656 211.603 42.5461Z" fill="#7B83EB"/>
<path opacity="0.1" d="M205.529 42.5461V54.8155C205.527 55.0907 205.446 55.3592 205.295 55.5874C205.144 55.8155 204.93 55.9931 204.681 56.0979C204.518 56.168 204.344 56.2041 204.168 56.2041H197.257C197.161 55.9536 197.072 55.7032 196.997 55.4454C196.737 54.5747 196.604 53.6695 196.603 52.7592V44.003C196.585 43.2176 197.194 42.5656 197.964 42.5463L205.529 42.5461Z" fill="black"/>
<path opacity="0.2" d="M204.785 42.5461V55.5744C204.785 55.7542 204.749 55.9322 204.681 56.0979C204.578 56.3524 204.404 56.5703 204.18 56.7241C203.956 56.878 203.693 56.9611 203.423 56.9629H197.607C197.481 56.7125 197.362 56.462 197.257 56.2041C197.157 55.9561 197.071 55.7028 196.997 55.4454C196.737 54.5747 196.604 53.6695 196.603 52.7592V44.003C196.585 43.2176 197.194 42.5656 197.964 42.5463L204.785 42.5461Z" fill="black"/>
<path opacity="0.2" d="M204.785 42.5461V54.0568C204.779 54.8213 204.173 55.4396 203.424 55.4454H196.997C196.737 54.5747 196.604 53.6695 196.603 52.7592V44.003C196.585 43.2176 197.194 42.5656 197.964 42.5463L204.785 42.5461Z" fill="black"/>
<path opacity="0.2" d="M204.041 42.5461V54.0568C204.035 54.8213 203.429 55.4396 202.68 55.4454H196.997C196.737 54.5747 196.604 53.6695 196.603 52.7592V44.003C196.585 43.2176 197.194 42.5656 197.964 42.5463L204.041 42.5461Z" fill="black"/>
<path opacity="0.1" d="M205.529 38.6232V41.0133C205.402 41.0209 205.283 41.0286 205.157 41.0286C205.03 41.0286 204.911 41.0209 204.785 41.0133C204.534 40.9963 204.285 40.9557 204.041 40.8919C203.299 40.7125 202.608 40.3564 202.027 39.8526C201.445 39.3488 200.988 38.7118 200.694 37.9935C200.591 37.7488 200.512 37.4947 200.456 37.2346H204.168C204.918 37.2376 205.526 37.8575 205.529 38.6232Z" fill="black"/>
<path opacity="0.2" d="M204.785 39.3819V41.0132C204.534 40.9962 204.285 40.9556 204.041 40.8919C203.298 40.7125 202.608 40.3563 202.026 39.8525C201.445 39.3488 200.988 38.7117 200.694 37.9934H203.423C204.174 37.9962 204.782 38.6163 204.785 39.3819Z" fill="black"/>
<path opacity="0.2" d="M204.785 39.3819V41.0132C204.534 40.9962 204.285 40.9556 204.041 40.8919C203.298 40.7125 202.608 40.3563 202.026 39.8525C201.445 39.3488 200.988 38.7117 200.694 37.9934H203.423C204.174 37.9962 204.782 38.6163 204.785 39.3819Z" fill="black"/>
<path opacity="0.2" d="M204.041 39.382V40.892C203.298 40.7126 202.608 40.3564 202.026 39.8526C201.445 39.3488 200.988 38.7117 200.694 37.9934H202.68C203.43 37.9963 204.038 38.6164 204.041 39.382Z" fill="black"/>
<path d="M189.041 37.9933H202.677C203.431 37.9933 204.041 38.616 204.041 39.3842V53.2955C204.041 54.0636 203.431 54.6863 202.678 54.6863H189.041C188.288 54.6863 187.677 54.0636 187.677 53.2955V39.3843C187.677 38.6159 188.288 37.9933 189.041 37.9933Z" fill="url(#paint0_linear_84_12472)"/>
<path d="M199.447 43.2881H196.721V50.8607H194.984V43.2881H192.271V41.8191H199.447V43.2881Z" fill="white"/>
</g>
<g clip-path="url(#clip2_84_12472)">
<path d="M148.958 223.04L152.521 227.159L157.313 230.254L158.147 223.066L157.313 216.04L152.429 218.76L148.958 223.04Z" fill="#00832D"/>
<path d="M128.279 229.585V235.711C128.279 237.109 129.402 238.245 130.786 238.245H136.844L138.099 233.617L136.844 229.585L132.688 228.317L128.279 229.585Z" fill="#0066DA"/>
<path d="M136.844 207.836L128.279 216.495L132.688 217.761L136.844 216.495L138.076 212.519L136.844 207.836Z" fill="#E94235"/>
<path d="M128.279 229.588H136.844V216.495H128.279V229.588Z" fill="#2684FC"/>
<path d="M162.784 211.502L157.313 216.04V230.254L162.807 234.81C163.629 235.462 164.832 234.868 164.832 233.811V212.481C164.832 211.413 163.601 210.822 162.784 211.502" fill="#00AC47"/>
<path d="M148.957 223.041V229.586H136.844V238.245H154.807C156.19 238.245 157.313 237.11 157.313 235.711V230.255L148.957 223.041Z" fill="#00AC47"/>
<path d="M154.807 207.836H136.844V216.495H148.957V223.04L157.313 216.04V210.37C157.313 208.971 156.19 207.836 154.807 207.836" fill="#FFBA00"/>
</g>
<g clip-path="url(#clip3_84_12472)">
<path d="M33.8512 57.0557C33.8512 58.6702 33.7294 60.2846 33.4552 61.8381C32.6328 66.9859 28.5511 71.0676 23.4032 71.8901C21.8498 72.1642 20.2353 72.286 18.6209 72.286C17.0065 72.286 15.3921 72.1642 13.8386 71.8901C8.69077 71.0676 4.60905 66.9859 3.78661 61.8381C3.51247 60.2846 3.39062 58.6702 3.39062 57.0557C3.39062 55.4413 3.51247 53.8269 3.78661 52.2734C4.60905 47.1256 8.69077 43.0439 13.8386 42.2214C15.3921 41.9473 17.0065 41.8254 18.6209 41.8254C20.2353 41.8254 21.8498 41.9473 23.4032 42.2214C28.5511 43.0439 32.6328 47.1256 33.4552 52.2734C33.7294 53.8269 33.8512 55.4413 33.8512 57.0557Z" fill="url(#paint1_linear_84_12472)"/>
<path d="M27.6678 66.5596H12.3157C11.3105 66.5596 10.3357 66.0113 9.87882 65.128C9.33053 64.0923 9.54376 62.8434 10.3662 62.021L21.0579 51.3293H13.3818C11.28 51.3293 9.57422 49.6235 9.57422 47.5217H23.7079C24.7131 47.5217 25.6879 48.07 26.1448 48.9534C26.6931 49.989 26.4799 51.2379 25.6574 52.0604L14.9962 62.7825H23.8602C25.962 62.7825 27.6678 64.4578 27.6678 66.5596Z" fill="white"/>
</g>
<defs>
<filter id="filter0_d_84_12472" x="89.5873" y="88.5536" width="51.6037" height="56.4189" filterUnits="userSpaceOnUse" color-interpolation-filters="sRGB">
<feFlood flood-opacity="0" result="BackgroundImageFix"/>
<feColorMatrix in="SourceAlpha" type="matrix" values="0 0 0 0 0 0 0 0 0 0 0 0 0 0 0 0 0 0 127 0" result="hardAlpha"/>
<feOffset/>
<feGaussianBlur stdDeviation="3.283"/>
<feComposite in2="hardAlpha" operator="out"/>
<feColorMatrix type="matrix" values="0 0 0 0 0 0 0 0 0 0 0 0 0 0 0 0 0 0 0.25 0"/>
<feBlend mode="normal" in2="BackgroundImageFix" result="effect1_dropShadow_84_12472"/>
<feBlend mode="normal" in="SourceGraphic" in2="effect1_dropShadow_84_12472" result="shape"/>
</filter>
<linearGradient id="paint0_linear_84_12472" x1="471.948" y1="-70.6794" x2="1572.02" y2="1796.99" gradientUnits="userSpaceOnUse">
<stop stop-color="#5A62C3"/>
<stop offset="0.5" stop-color="#4D55BD"/>
<stop offset="1" stop-color="#3940AB"/>
</linearGradient>
<linearGradient id="paint1_linear_84_12472" x1="724.271" y1="2954.22" x2="2328.57" y2="175.487" gradientUnits="userSpaceOnUse">
<stop stop-color="#0845BF"/>
<stop offset="0.1911" stop-color="#0950DE"/>
<stop offset="0.3823" stop-color="#0B59F6"/>
<stop offset="0.5" stop-color="#0B5CFF"/>
<stop offset="0.6732" stop-color="#0E5EFE"/>
<stop offset="0.7774" stop-color="#1665FC"/>
<stop offset="0.8633" stop-color="#246FF9"/>
<stop offset="0.9388" stop-color="#387FF4"/>
<stop offset="1" stop-color="#4F90EE"/>
</linearGradient>
<clipPath id="clip0_84_12472">
<rect x="76" y="76" width="79.271" height="79.6129" rx="39.6355" fill="white"/>
</clipPath>
<clipPath id="clip1_84_12472">
<rect width="32.3054" height="30.1602" fill="white" transform="translate(187.677 31.1643)"/>
</clipPath>
<clipPath id="clip2_84_12472">
<rect width="36.7548" height="30.294" fill="white" transform="translate(128.279 208.002)"/>
</clipPath>
<clipPath id="clip3_84_12472">
<rect width="30.4606" height="30.4606" fill="white" transform="translate(3.39062 41.8254)"/>
</clipPath>
</defs>
</svg>
